<svg width="500" height="59" viewBox="0 0 500 59" fill="none" xmlns="http://www.w3.org/2000/svg">
<path d="M115.25 46.6586C111.744 46.6586 108.714 45.8976 106.167 44.3805C103.633 42.849 101.673 40.701 100.296 37.9558C98.9279 35.2106 98.2489 32.0272 98.2489 28.4006C98.2489 24.7741 98.9279 21.5666 100.296 18.8166C101.678 16.0714 103.633 13.9378 106.167 12.4208C108.714 10.8892 111.748 10.1138 115.25 10.1138C119.281 10.1138 122.657 11.1204 125.388 13.1239C128.133 15.1081 130.069 17.8148 131.201 21.215L124.511 23.0836C123.871 20.9453 122.768 19.2837 121.212 18.1182C119.671 16.9479 117.687 16.3652 115.255 16.3652C113.034 16.3652 111.171 16.8612 109.673 17.8533C108.189 18.831 107.082 20.2181 106.345 22.0289C105.598 23.8253 105.237 25.9444 105.237 28.3958C105.237 30.8472 105.603 32.9519 106.345 34.7627C107.082 36.5592 108.194 37.9462 109.673 38.9383C111.171 39.9304 113.034 40.4265 115.255 40.4265C117.687 40.4265 119.671 39.8341 121.212 38.6445C122.768 37.4598 123.871 35.803 124.511 33.6791L131.201 35.5478C130.069 38.9576 128.133 41.6691 125.388 43.6677C122.657 45.652 119.281 46.6489 115.25 46.6489V46.6586Z" fill="#212529"/>
<path d="M154.482 45.9313V33.5154C154.482 32.9182 154.439 32.1428 154.366 31.2084C154.309 30.2741 154.101 29.3398 153.755 28.4055C153.418 27.4567 152.864 26.6668 152.088 26.0407C151.327 25.4002 150.234 25.0775 148.818 25.0775C148.25 25.0775 147.633 25.1642 146.978 25.3424C146.338 25.5158 145.731 25.8674 145.168 26.3923C144.599 26.9028 144.132 27.6493 143.766 28.6415C143.395 29.6336 143.212 30.9484 143.212 32.5859L139.412 30.775C139.412 28.7137 139.826 26.7728 140.669 24.9619C141.522 23.1366 142.803 21.6629 144.498 20.5504C146.193 19.4234 148.332 18.8551 150.923 18.8551C152.984 18.8551 154.66 19.2067 155.946 19.905C157.246 20.5937 158.263 21.4702 158.985 22.5346C159.703 23.6086 160.218 24.7259 160.531 25.8963C160.839 27.0666 161.027 28.1309 161.085 29.0797C161.157 30.0381 161.2 30.7365 161.2 31.1844V45.9361H154.482V45.9313ZM136.489 45.9313V10.8459H142.389V28.8726H143.207V45.9313H136.489Z" fill="#212529"/>
<path d="M174.83 46.6586C172.937 46.6586 171.338 46.2926 170.038 45.5798C168.733 44.8622 167.736 43.899 167.057 42.6853C166.392 41.4813 166.065 40.1376 166.065 38.6542C166.065 37.4502 166.248 36.3473 166.619 35.3552C166.985 34.3486 167.591 33.448 168.429 32.6678C169.263 31.8924 170.394 31.2518 171.82 30.7413C172.793 30.3753 173.953 30.0526 175.297 29.7781C176.641 29.5084 178.158 29.2435 179.853 28.9883C181.563 28.7378 183.446 28.4537 185.493 28.1406L183.128 29.4554C183.128 27.8998 182.748 26.7584 181.987 26.036C181.24 25.2991 180.003 24.9283 178.249 24.9283C177.272 24.9283 176.246 25.1643 175.182 25.6314C174.132 26.0986 173.4 26.9366 172.99 28.1454L166.97 26.2479C167.649 24.071 168.906 22.2987 170.736 20.9309C172.562 19.5727 175.066 18.884 178.245 18.884C180.561 18.884 182.613 19.2501 184.409 19.9628C186.22 20.6853 187.593 21.9182 188.527 23.6713C189.033 24.6489 189.331 25.6218 189.432 26.5946C189.529 27.5723 189.577 28.6608 189.577 29.8648V45.9314H183.793V40.5277L184.612 41.6354C183.326 43.4077 181.939 44.6936 180.465 45.4931C178.981 46.2685 177.103 46.6634 174.825 46.6634L174.83 46.6586ZM176.231 41.462C177.46 41.462 178.49 41.2501 179.328 40.8215C180.161 40.3736 180.826 39.8775 181.313 39.3333C181.818 38.7939 182.16 38.3267 182.334 37.9318C182.661 37.2286 182.858 36.4051 182.916 35.4467C182.974 34.4979 183.003 33.7081 183.003 33.082L184.958 33.5491C182.989 33.8862 181.394 34.1608 180.166 34.3968C178.953 34.6135 177.975 34.8061 177.214 34.9795C176.467 35.1529 175.817 35.3503 175.259 35.5623C174.618 35.8175 174.088 36.1017 173.679 36.4099C173.284 36.7037 172.99 37.036 172.802 37.402C172.629 37.7536 172.538 38.1485 172.538 38.5723C172.538 39.1792 172.682 39.6993 172.976 40.1183C173.27 40.5469 173.684 40.8793 174.233 41.1104C174.796 41.3464 175.461 41.462 176.217 41.462H176.231Z" fill="#212529"/>
<path d="M195.929 45.9313V19.6112H201.771V26.0359L201.131 25.2172C201.482 24.3021 201.935 23.4786 202.503 22.7321C203.067 21.9952 203.765 21.3787 204.608 20.8923C205.229 20.507 205.908 20.2036 206.655 19.9869C207.416 19.7509 208.186 19.6064 208.991 19.5486C209.785 19.4908 210.585 19.5101 211.384 19.6064V25.7999C210.638 25.564 209.785 25.4917 208.813 25.564C207.854 25.6458 206.987 25.8722 206.212 26.2382C205.432 26.5898 204.767 27.0714 204.228 27.6686C203.703 28.2514 203.293 28.9545 202.999 29.7732C202.72 30.5775 202.59 31.483 202.59 32.4895V45.9265H195.929V45.9313Z" fill="#212529"/>
<path d="M227.244 58.3473C225.741 58.3473 224.32 58.0969 222.977 57.6153C221.633 57.1481 220.419 56.4835 219.355 55.631C218.305 54.793 217.433 53.7961 216.754 52.6499L222.919 49.6687C223.328 50.4441 223.921 51.0413 224.701 51.4506C225.496 51.86 226.367 52.0623 227.302 52.0623C228.294 52.0623 229.228 51.8937 230.105 51.5662C230.981 51.2291 231.684 50.733 232.209 50.078C232.734 49.4134 232.975 48.5947 232.941 47.6218V39.9979H233.789V19.6064H239.573V47.7374C239.573 48.378 239.544 48.98 239.486 49.5483C239.429 50.131 239.327 50.7041 239.193 51.2724C238.764 52.8858 237.974 54.2103 236.828 55.2457C235.672 56.2957 234.271 57.0711 232.623 57.5816C230.967 58.0873 229.175 58.3425 227.249 58.3425L227.244 58.3473ZM226.661 46.6586C224.243 46.6586 222.119 46.0518 220.294 44.8477C218.483 43.6196 217.067 41.9725 216.056 39.8823C215.04 37.7777 214.539 35.413 214.539 32.7834C214.539 30.1538 215.049 27.7168 216.085 25.6266C217.116 23.546 218.556 21.9037 220.41 20.6901C222.278 19.486 224.479 18.8792 227.013 18.8792C229.546 18.8792 231.598 19.4909 233.293 20.719C235.003 21.9326 236.303 23.5797 237.179 25.6844C238.056 27.789 238.494 30.1538 238.494 32.7834C238.494 35.413 238.042 37.7777 237.151 39.8823C236.274 41.9725 234.959 43.6196 233.206 44.8477C231.453 46.0518 229.271 46.6586 226.661 46.6586ZM227.745 40.7588C229.218 40.7588 230.403 40.4314 231.28 39.7667C232.171 39.1117 232.811 38.1726 233.206 36.9637C233.591 35.7597 233.789 34.363 233.789 32.7882C233.789 31.2133 233.591 29.7925 233.206 28.5837C232.811 27.3797 232.19 26.4453 231.338 25.7807C230.475 25.1257 229.358 24.7886 227.976 24.7886C226.493 24.7886 225.274 25.1546 224.325 25.8674C223.391 26.5898 222.688 27.5627 222.221 28.7908C221.768 30.0045 221.546 31.3337 221.546 32.793C221.546 34.2523 221.758 35.62 222.187 36.8241C222.635 38.0377 223.304 39.001 224.205 39.7186C225.12 40.4217 226.295 40.7685 227.74 40.7685L227.745 40.7588Z" fill="#212529"/>
<path d="M258.606 46.6586C255.919 46.6586 253.54 46.0807 251.479 44.9344C249.432 43.7641 247.828 42.1603 246.658 40.1135C245.502 38.0666 244.933 35.7308 244.933 33.1012C244.933 30.2404 245.497 27.7457 246.629 25.6218C247.756 23.4834 249.326 21.8219 251.334 20.6564C253.338 19.4716 255.635 18.8744 258.231 18.8744C260.99 18.8744 263.345 19.5294 265.272 20.8297C267.198 22.1349 268.619 23.9698 269.539 26.3201C270.473 28.68 270.801 31.4493 270.531 34.6183H263.986V32.1958C263.986 29.5084 263.557 27.5819 262.7 26.4116C261.838 25.2269 260.451 24.6297 258.525 24.6297C256.261 24.6297 254.595 25.3232 253.53 26.7054C252.48 28.0732 251.951 30.096 251.951 32.7833C251.951 35.2396 252.476 37.1371 253.53 38.4808C254.595 39.8101 256.165 40.4651 258.236 40.4651C259.536 40.4651 260.644 40.1857 261.564 39.6174C262.498 39.0539 263.206 38.2352 263.697 37.1612L270.329 39.0588C269.337 41.4524 267.767 43.3258 265.624 44.6695C263.5 45.9892 261.159 46.6538 258.611 46.6538L258.606 46.6586ZM249.904 34.6231V29.7155H267.343V34.6231H249.904Z" fill="#212529"/>
<path d="M288.929 46.6586C286.314 46.6586 284.122 46.0517 282.355 44.8477C280.602 43.6196 279.272 41.9725 278.381 39.8823C277.505 37.7776 277.067 35.4129 277.067 32.7833C277.067 30.1537 277.505 27.789 278.381 25.6844C279.272 23.5797 280.573 21.9326 282.268 20.7189C283.978 19.4908 286.082 18.8792 288.577 18.8792C291.072 18.8792 293.282 19.486 295.151 20.69C297.02 21.9037 298.465 23.546 299.505 25.6266C300.536 27.7168 301.051 30.0959 301.051 32.7833C301.051 35.4707 300.54 37.7776 299.534 39.8823C298.518 41.9725 297.097 43.6196 295.267 44.8477C293.456 46.0517 291.337 46.6586 288.929 46.6586ZM275.954 45.9313V10.8459H282.644V27.9046H281.796V45.9313H275.954ZM287.845 40.7588C289.261 40.7588 290.431 40.4072 291.351 39.7089C292.266 38.9913 292.936 38.0281 293.369 36.8144C293.817 35.6104 294.043 34.2667 294.043 32.7833C294.043 31.3 293.807 29.9948 293.34 28.7811C292.888 27.553 292.184 26.585 291.236 25.8577C290.301 25.1401 289.088 24.7789 287.614 24.7789C286.227 24.7789 285.11 25.1161 284.252 25.771C283.39 26.4357 282.769 27.37 282.384 28.574C281.989 29.7877 281.801 31.1892 281.801 32.7785C281.801 34.3678 281.989 35.75 282.384 36.9541C282.769 38.1677 283.405 39.1021 284.281 39.7571C285.172 40.4217 286.362 40.7492 287.845 40.7492V40.7588Z" fill="#212529"/>
<path d="M313.717 46.6586C311.825 46.6586 310.226 46.2926 308.925 45.5798C307.62 44.8622 306.623 43.899 305.944 42.6853C305.279 41.4813 304.952 40.1376 304.952 38.6542C304.952 37.4502 305.135 36.3473 305.506 35.3552C305.872 34.3486 306.479 33.448 307.317 32.6678C308.15 31.8924 309.282 31.2518 310.707 30.7413C311.68 30.3753 312.841 30.0526 314.184 29.7781C315.528 29.5084 317.045 29.2435 318.741 28.9883C320.45 28.7378 322.333 28.4537 324.38 28.1406L322.015 29.4554C322.015 27.8998 321.635 26.7584 320.874 26.036C320.128 25.2991 318.89 24.9283 317.137 24.9283C316.159 24.9283 315.133 25.1643 314.069 25.6314C313.019 26.0986 312.287 26.9366 311.878 28.1454L305.857 26.2479C306.536 24.071 307.793 22.2987 309.624 20.9309C311.449 19.5727 313.953 18.884 317.132 18.884C319.448 18.884 321.5 19.2501 323.297 19.9628C325.107 20.6853 326.48 21.9182 327.414 23.6713C327.92 24.6489 328.219 25.6218 328.32 26.5946C328.416 27.5723 328.464 28.6608 328.464 29.8648V45.9314H322.68V40.5277L323.499 41.6354C322.213 43.4077 320.826 44.6936 319.352 45.4931C317.869 46.2685 315.991 46.6634 313.712 46.6634L313.717 46.6586ZM315.119 41.462C316.347 41.462 317.378 41.2501 318.216 40.8215C319.049 40.3736 319.713 39.8775 320.2 39.3333C320.705 38.7939 321.047 38.3267 321.221 37.9318C321.548 37.2286 321.746 36.4051 321.804 35.4467C321.861 34.4979 321.89 33.7081 321.89 33.082L323.846 33.5491C321.876 33.8862 320.282 34.1608 319.054 34.3968C317.84 34.6135 316.862 34.8061 316.101 34.9795C315.355 35.1529 314.705 35.3503 314.146 35.5623C313.505 35.8175 312.976 36.1017 312.566 36.4099C312.171 36.7037 311.878 37.036 311.69 37.402C311.516 37.7536 311.425 38.1485 311.425 38.5723C311.425 39.1792 311.569 39.6993 311.863 40.1183C312.157 40.5469 312.571 40.8793 313.12 41.1104C313.684 41.3464 314.348 41.462 315.104 41.462H315.119Z" fill="#212529"/>
<path d="M346.409 46.6586C343.678 46.6586 341.333 46.0518 339.368 44.8477C337.417 43.6196 335.929 41.9725 334.899 39.8823C333.863 37.7777 333.353 35.413 333.353 32.7834C333.353 30.1538 333.887 27.7457 334.961 25.6555C336.05 23.5508 337.567 21.9037 339.517 20.6901C341.482 19.486 343.813 18.8792 346.501 18.8792C349.597 18.8792 352.198 19.6691 354.303 21.2439C356.407 22.8092 357.751 24.9475 358.334 27.6686L351.731 29.4217C351.336 28.0395 350.657 26.9655 349.684 26.2093C348.706 25.4484 347.618 25.0679 346.414 25.0679C345.012 25.0679 343.857 25.4099 342.966 26.0889C342.065 26.7536 341.4 27.6686 340.981 28.8341C340.572 30.0044 340.37 31.3193 340.37 32.7785C340.37 35.0566 340.875 36.9108 341.887 38.3267C342.893 39.7523 344.406 40.4602 346.414 40.4602C347.888 40.4602 349.019 40.1231 349.804 39.4392C350.599 38.7602 351.192 37.7873 351.586 36.5158L358.334 37.9173C357.587 40.7203 356.181 42.8828 354.096 44.4047C352.03 45.9073 349.467 46.6538 346.414 46.6538L346.409 46.6586Z" fill="#212529"/>
<path d="M363.155 45.9313L363.213 10.8459H369.931V32.2873L378.841 19.6064H387.019L377.526 32.7833L387.664 45.9313H379.048L369.931 33.2505V45.9313H363.155Z" fill="#212529"/>
<path d="M403.336 46.6586C400.745 46.6586 398.404 46.1962 396.323 45.286C394.233 44.3709 392.523 43.0561 391.18 41.3416C389.836 39.6318 388.988 37.5898 388.637 35.2058L395.562 34.1848C396.044 36.1931 397.051 37.7439 398.573 38.8275C400.09 39.9208 401.823 40.465 403.774 40.465C404.862 40.465 405.912 40.3061 406.928 39.969C407.959 39.6174 408.807 39.1165 409.471 38.4519C410.126 37.7969 410.464 36.9782 410.464 35.9957C410.464 35.6296 410.406 35.2781 410.29 34.9458C410.189 34.6183 410.011 34.3052 409.765 34.0114C409.529 33.7176 409.187 33.4479 408.744 33.1927C408.291 32.923 407.728 32.687 407.049 32.4895L397.932 29.8021C397.243 29.6143 396.458 29.335 395.567 28.9834C394.667 28.6174 393.795 28.102 392.938 27.4374C392.1 26.7824 391.397 25.9059 390.833 24.8078C390.265 23.7001 389.985 22.3082 389.985 20.6322C389.985 18.282 390.578 16.3218 391.767 14.7614C392.952 13.2058 394.541 12.0451 396.53 11.2841C398.515 10.5232 400.706 10.1572 403.104 10.1764C405.513 10.2005 407.675 10.6051 409.592 11.4046C411.499 12.2088 413.083 13.3599 414.355 14.8818C415.641 16.3989 416.561 18.2627 417.129 20.4637L409.972 21.6629C409.717 20.5359 409.24 19.5823 408.542 18.8021C407.839 18.0267 407.001 17.4295 406.028 17.0201C405.069 16.6108 404.073 16.3989 403.018 16.3796C401.968 16.3411 400.981 16.4807 400.066 16.789C399.146 17.102 398.399 17.5644 397.816 18.1616C397.248 18.7684 396.969 19.4908 396.969 20.324C396.969 21.085 397.205 21.7111 397.672 22.1927C398.139 22.6598 398.731 23.0403 399.454 23.3341C400.171 23.6279 400.899 23.8735 401.645 24.0661L407.752 25.7325C408.643 25.9685 409.65 26.2864 410.762 26.6957C411.87 27.0907 412.929 27.6445 413.946 28.3621C414.952 29.0653 415.795 29.99 416.46 31.1362C417.115 32.2921 417.452 33.7514 417.452 35.5189C417.452 37.4116 417.052 39.0539 416.252 40.4554C415.472 41.8569 414.413 43.0176 413.069 43.9326C411.74 44.8525 410.237 45.5316 408.542 45.9795C406.861 46.4466 405.132 46.6826 403.34 46.6826L403.336 46.6586Z" fill="#212529"/>
<path d="M438.566 45.9313C436.755 46.2829 434.973 46.4274 433.22 46.3696C431.467 46.3263 429.906 46.0277 428.543 45.4642C427.175 44.8814 426.135 43.9471 425.418 42.6612C424.753 41.4764 424.401 40.2579 424.368 39.0106C424.344 37.768 424.339 36.3521 424.339 34.7724V12.3052H430.971V34.3919C430.971 35.4081 430.98 36.3184 430.999 37.1371C431.014 37.9558 431.182 38.6108 431.496 39.0924C432.078 40.0268 433.013 40.5373 434.299 40.6095C435.584 40.6914 437 40.6336 438.566 40.4361V45.9265V45.9313ZM419.869 24.7211V19.6064H438.566V24.7211H419.869Z" fill="#212529"/>
<path d="M456.25 46.6586C453.602 46.6586 451.27 46.0614 449.267 44.8766C447.283 43.6919 445.732 42.0592 444.624 39.969C443.517 37.8884 442.958 35.49 442.958 32.7834C442.958 30.0767 443.521 27.6253 444.653 25.5399C445.78 23.4353 447.35 21.8026 449.358 20.6323C451.362 19.462 453.659 18.8792 456.255 18.8792C458.851 18.8792 461.23 19.4764 463.239 20.6612C465.242 21.8508 466.803 23.4882 467.915 25.5688C469.042 27.659 469.61 30.0622 469.61 32.7834C469.61 35.5045 469.042 37.9173 467.915 39.9979C466.783 42.0881 465.213 43.7208 463.21 44.9055C461.201 46.0758 458.885 46.6586 456.255 46.6586H456.25ZM456.25 40.4651C458.369 40.4651 459.959 39.7571 461.014 38.3315C462.063 36.8915 462.593 35.0469 462.593 32.7834C462.593 30.5198 462.054 28.5789 460.985 27.1726C459.935 25.7711 458.355 25.0679 456.25 25.0679C454.806 25.0679 453.621 25.4051 452.686 26.06C451.767 26.7006 451.088 27.6012 450.64 28.7474C450.187 29.9033 449.965 31.247 449.965 32.7785C449.965 35.1384 450.49 37.0071 451.545 38.3893C452.609 39.7764 454.179 40.4651 456.25 40.4651Z" fill="#212529"/>
<path d="M487.878 46.6586C485.263 46.6586 483.071 46.0518 481.304 44.8477C479.551 43.6196 478.222 41.9725 477.331 39.8823C476.454 37.7777 476.016 35.413 476.016 32.7834C476.016 30.1538 476.454 27.789 477.331 25.6844C478.222 23.5797 479.522 21.9326 481.217 20.719C482.927 19.4909 485.032 18.8792 487.526 18.8792C490.021 18.8792 492.232 19.486 494.1 20.6901C495.969 21.9037 497.414 23.546 498.454 25.6266C499.485 27.7168 500 30.096 500 32.7834C500 35.4707 499.49 37.7777 498.483 39.8823C497.467 41.9725 496.046 43.6196 494.216 44.8477C492.405 46.0518 490.286 46.6586 487.878 46.6586ZM474.908 57.6153V19.6064H480.75V37.6332H481.598V57.6153H474.908ZM486.794 40.7588C488.21 40.7588 489.38 40.4073 490.3 39.7089C491.215 38.9913 491.885 38.0281 492.318 36.8144C492.766 35.6104 492.993 34.2667 492.993 32.7834C492.993 31.3 492.757 29.9948 492.289 28.7812C491.837 27.553 491.134 26.585 490.185 25.8578C489.25 25.1402 488.037 24.779 486.563 24.779C485.176 24.779 484.059 25.1161 483.201 25.7711C482.339 26.4357 481.718 27.37 481.333 28.5741C480.938 29.7877 480.75 31.1892 480.75 32.7785C480.75 34.3679 480.938 35.7501 481.333 36.9541C481.718 38.1678 482.354 39.1021 483.23 39.7571C484.121 40.4217 485.311 40.7492 486.794 40.7492V40.7588Z" fill="#212529"/>
<path d="M0 11.5828L33.5828 45.1656L22 56.7435L0 34.7435V11.5828Z" fill="#212529"/>
<path d="M34.7387 0L56.7435 22.0049V45.1656L23.1607 11.5828L34.7387 0Z" fill="#212529"/>
</svg>
